<?xml version="1.0" encoding="UTF-8" standalone="no"?>
<!-- Generator: Adobe Illustrator 22.0.1, SVG Export Plug-In . SVG Version: 6.00 Build 0)  -->

<svg
   xmlns:dc="http://purl.org/dc/elements/1.1/"
   xmlns:cc="http://creativecommons.org/ns#"
   xmlns:rdf="http://www.w3.org/1999/02/22-rdf-syntax-ns#"
   xmlns:svg="http://www.w3.org/2000/svg"
   xmlns="http://www.w3.org/2000/svg"
   xmlns:sodipodi="http://sodipodi.sourceforge.net/DTD/sodipodi-0.dtd"
   xmlns:inkscape="http://www.inkscape.org/namespaces/inkscape"
   version="1.1"
   id="Layer_1"
   x="0px"
   y="0px"
   viewBox="0 0 530 190"
   xml:space="preserve"
   inkscape:version="0.91 r13725"
   sodipodi:docname="brand-logo.2pZ4JI.svg"
   width="530"
   height="190"><metadata
     id="metadata21"><rdf:RDF><cc:Work
         rdf:about=""><dc:format>image/svg+xml</dc:format><dc:type
           rdf:resource="http://purl.org/dc/dcmitype/StillImage" /><dc:title></dc:title></cc:Work></rdf:RDF></metadata><defs
     id="defs19" /><sodipodi:namedview
     pagecolor="#ffffff"
     bordercolor="#666666"
     borderopacity="1"
     objecttolerance="10"
     gridtolerance="10"
     guidetolerance="10"
     inkscape:pageopacity="0"
     inkscape:pageshadow="2"
     inkscape:window-width="1440"
     inkscape:window-height="788"
     id="namedview17"
     showgrid="false"
     inkscape:zoom="1.388648"
     inkscape:cx="261.27988"
     inkscape:cy="92"
     inkscape:window-x="0"
     inkscape:window-y="1"
     inkscape:window-maximized="1"
     inkscape:current-layer="Layer_1" /><style
     type="text/css"
     id="style3">
	.st0{fill:#FFFFFF;}
	.st1{fill:#FFCA05;}
</style><rect
     style="opacity:1;fill:#000000;fill-opacity:1;fill-rule:evenodd;stroke:none;stroke-width:4;stroke-linecap:round;stroke-linejoin:round;stroke-miterlimit:4;stroke-dasharray:none;stroke-dashoffset:0;stroke-opacity:1"
     id="rect4168"
     width="530"
     height="190"
     x="1.4402497"
     y="-3.8146973e-06" /><g
     id="g4160"
     transform="matrix(0.90972234,0,0,0.90972234,28.1215,11.335407)"><g
       id="g4154"><polygon
         style="fill:#ffffff"
         id="polygon7"
         points="363.7,179.8 392.6,62.3 346.4,67.1 318.7,179.8 "
         class="st0" /><path
         style="fill:#ffffff"
         inkscape:connector-curvature="0"
         id="path9"
         d="m 494.8,62.1 c -13.4,-1.3 -34.3,2.8 -44.7,10.7 -0.2,-3.8 -0.9,-7.5 -2,-11.2 l -39.8,5 c 1.6,11.1 0,23.5 -3.9,40.1 l -17.9,73.1 45,0 18.4,-74.7 c 4.5,-6.5 11.7,-10.8 17.7,-10.8 7.5,0 9.3,5.5 7,14.5 l -17.3,71 45,0 19.3,-77.1 c 4.8,-20.9 -2,-38.2 -26.8,-40.6 z"
         class="st0" /><path
         style="fill:#ffffff"
         inkscape:connector-curvature="0"
         id="path11"
         d="m 292,63.6 -14.3,32.9 c -5.3,12.4 -9.9,24 -13.9,35.4 l -0.5,-68.3 -40.6,0 -33.7,68.8 3.6,-70.5 -44.6,5.7 9,112.3 39.6,0 c 0,0 29.9,-60.6 32.6,-67.7 l 0.4,67.6 40.6,0 67,-116.3 -45.2,0.1 0,0 0,0 z"
         class="st0" /><path
         style="fill:#ffffff"
         inkscape:connector-curvature="0"
         id="path13"
         d="m 99.5,60.6 c -8.9,-0.2 -17.7,1.9 -25.6,6 4.5,-14.3 7.6,-29 9.1,-43.9 l 0,0 c 0.3,-3.4 0.3,-6.9 0.2,-10.3 L 36,18.2 c 0.5,7.6 -0.6,19.5 -6.6,45.1 L 6.6,157.5 c -1,4.5 -3.6,13 -5.7,16.2 18.5,6.3 37.9,9.4 57.4,9 14.7,0 26.4,-2.7 38.3,-9.7 20.4,-11.9 33,-33.4 38.3,-54.2 9.8,-39 -6.2,-58.2 -35.4,-58.2 z m -11.9,60.2 c -5.2,21.7 -11.9,31.3 -23.3,31.3 -3.7,0.2 -7.4,-0.8 -10.6,-2.7 L 66.1,97.8 c 3.5,-3.5 8.2,-5.5 13.2,-5.6 10.2,0 13.7,5.6 8.3,28.6 z"
         class="st0" /></g><circle
       class="st1"
       cx="375.39999"
       cy="25.799999"
       r="24.6"
       id="circle15"
       style="fill:#ffca05" /></g></svg>